<svg xmlns="http://www.w3.org/2000/svg" viewBox="0 0 200 200" fill="none">
  <defs>
    <linearGradient id="bg" x1="0" y1="0" x2="200" y2="200" gradientUnits="userSpaceOnUse">
      <stop offset="0%" stop-color="#fde8ef"/>
      <stop offset="100%" stop-color="#fce4d6"/>
    </linearGradient>
    <linearGradient id="hairG" x1="60" y1="20" x2="140" y2="90" gradientUnits="userSpaceOnUse">
      <stop offset="0%" stop-color="#1c1c2e"/>
      <stop offset="100%" stop-color="#2e1f1a"/>
    </linearGradient>
    <radialGradient id="skin" cx="100" cy="115" r="50" gradientUnits="userSpaceOnUse">
      <stop offset="0%" stop-color="#ddb892"/>
      <stop offset="80%" stop-color="#c9956c"/>
    </radialGradient>
    <radialGradient id="blushL" cx="0.5" cy="0.5" r="0.5">
      <stop offset="0%" stop-color="#f0a090" stop-opacity="0.35"/>
      <stop offset="100%" stop-color="#f0a090" stop-opacity="0"/>
    </radialGradient>
    <radialGradient id="bunHL" cx="0.35" cy="0.3" r="0.4">
      <stop offset="0%" stop-color="#3a2a22" stop-opacity="0.25"/>
      <stop offset="100%" stop-color="#3a2a22" stop-opacity="0"/>
    </radialGradient>
  </defs>

  <circle cx="100" cy="100" r="100" fill="url(#bg)"/>

  <ellipse cx="100" cy="204" rx="44" ry="34" fill="#ff7043"/>
  <ellipse cx="100" cy="206" rx="38" ry="29" fill="#ff8a65"/>

  <circle cx="100" cy="113" r="47" fill="url(#skin)"/>

  <ellipse cx="100" cy="80" rx="50" ry="33" fill="url(#hairG)"/>
  <rect x="53" y="67" width="94" height="18" rx="4" fill="url(#hairG)"/>
  <path d="M56 84 Q64 72 77 77 Q89 66 100 75 Q111 66 123 77 Q136 72 144 84" fill="url(#hairG)"/>

  <ellipse cx="67" cy="46" rx="19" ry="20" fill="url(#hairG)"/>
  <ellipse cx="67" cy="46" rx="16" ry="17" fill="#2e1f1a"/>
  <ellipse cx="67" cy="40" rx="9" ry="6" fill="url(#bunHL)"/>

  <ellipse cx="133" cy="46" rx="19" ry="20" fill="url(#hairG)"/>
  <ellipse cx="133" cy="46" rx="16" ry="17" fill="#2e1f1a"/>
  <ellipse cx="133" cy="40" rx="9" ry="6" fill="url(#bunHL)"/>

  <path d="M56 80 Q62 60 67 50" stroke="#2e1f1a" stroke-width="3" fill="none" opacity="0.15"/>
  <path d="M144 80 Q138 60 133 50" stroke="#2e1f1a" stroke-width="3" fill="none" opacity="0.15"/>

  <ellipse cx="83" cy="109" rx="6" ry="6.5" fill="white"/>
  <circle cx="84" cy="109" r="3.8" fill="#231712"/>
  <circle cx="85" cy="107.5" r="1.4" fill="white"/>

  <ellipse cx="117" cy="109" rx="6" ry="6.5" fill="white"/>
  <circle cx="116" cy="109" r="3.8" fill="#231712"/>
  <circle cx="117" cy="107.5" r="1.4" fill="white"/>

  <path d="M74 100 Q78.5 97.5 83 100.5" stroke="#2e1f1a" stroke-width="1.5" fill="none" stroke-linecap="round"/>
  <path d="M117 100.5 Q121.5 97.5 126 100" stroke="#2e1f1a" stroke-width="1.5" fill="none" stroke-linecap="round"/>

  <path d="M77 107.5 L74.5 105" stroke="#2e1f1a" stroke-width="0.9" stroke-linecap="round"/>
  <path d="M76.5 110 L74 108" stroke="#2e1f1a" stroke-width="0.7" stroke-linecap="round"/>
  <path d="M123 107.5 L125.5 105" stroke="#2e1f1a" stroke-width="0.9" stroke-linecap="round"/>
  <path d="M123.5 110 L126 108" stroke="#2e1f1a" stroke-width="0.7" stroke-linecap="round"/>

  <ellipse cx="100" cy="119" rx="2.5" ry="1.8" fill="#a86840" opacity="0.5"/>

  <path d="M88 130 Q94 140 100 140 Q106 140 112 130" stroke="#2e1f1a" stroke-width="2.2" fill="none" stroke-linecap="round"/>
  <path d="M90 131 Q95.5 138.5 100 138.5 Q104.5 138.5 110 131 Q105 135 100 135 Q95 135 90 131Z" fill="white" opacity="0.85"/>
  <path d="M93 138 Q97 139.5 100 139.5 Q103 139.5 107 138" fill="#e87070" opacity="0.25"/>

  <circle cx="74" cy="122" r="8" fill="url(#blushL)"/>
  <circle cx="126" cy="122" r="8" fill="url(#blushL)"/>

  <circle cx="54" cy="119" r="2.6" fill="#f0c860" opacity="0.65"/>
  <circle cx="54" cy="119" r="1.4" fill="#d4a040" opacity="0.45"/>

  <circle cx="146" cy="119" r="2.6" fill="#f0c860" opacity="0.65"/>
  <circle cx="146" cy="119" r="1.4" fill="#d4a040" opacity="0.45"/>
</svg>
